PathFileType   4   (X/Y/Z)
DataRate	CameraRate	NumFrames	NumMarkers	Units	OrigDataRate	OrigDataStartFrame	OrigNumFrames
120.0	120.0	6	37	mm	120.0	69	136
Frame#	Time	midhip	hip_r	hip_l	knee_r	knee_l	ankle_r	ankle_l	midasis	asis_r	asis_l	psis_r	psis_l	epicondLat_r	epicondLat_l	epicondMed_r	epicondMed_l	malleolusLat_r	malleolusLat_l	malleolusMedv_r	malleolusMedv_l	neck	subclavicle_r	subclavicle_l	sternalnotch	xyphoidprocess	thighwand_r	thighwand_l	upperleg1_r	upperleg1_l	upperleg2_r	upperleg2_l	shankwand_r	shankwand_l	lowerleg1_r	lowerleg1_l	toe_r	toe_l
 	 	X1	Y1	Z1	X2	Y2	Z2	X3	Y3	Z3	X4	Y4	Z4	X5	Y5	Z5	X6	Y6	Z6	X7	Y7	Z7	X8	Y8	Z8	X9	Y9	Z9	X10	Y10	Z10	X11	Y11	Z11	X12	Y12	Z12	X13	Y13	Z13	X14	Y14	Z14	X15	Y15	Z15	X16	Y16	Z16	X17	Y17	Z17	X18	Y18	Z18	X19	Y19	Z19	X20	Y20	Z20	X21	Y21	Z21	X22	Y22	Z22	X23	Y23	Z23	X24	Y24	Z24	X25	Y25	Z25	X26	Y26	Z26	X27	Y27	Z27	X28	Y28	Z28	X29	Y29	Z29	X30	Y30	Z30	X31	Y31	Z31	X32	Y32	Z32	X33	Y33	Z33	X34	Y34	Z34	X35	Y35	Z35	X36	Y36	Z36	X37	Y37	Z37

	69	0.70000	581.198	667.628	-253.950	574.973	670.354	-187.410	574.883	677.281	-313.048	491.656	367.382	-194.892	669.628	374.449	-289.399	268.881	123.138	-185.691	760.611	62.242	-293.097	642.551	735.182	-246.894	642.619	729.958	-152.138	642.483	740.406	-341.650	499.647	778.238	-226.483	495.190	774.737	-281.243	491.847	366.082	-144.409	667.167	369.796	-339.121	497.782	358.681	-245.023	682.861	376.428	-233.471	263.886	128.922	-153.074	750.241	59.609	-325.896	272.828	132.772	-212.385	757.540	67.078	-264.587	542.914	1123.867	-261.039	626.280	1080.312	-197.968	617.635	1077.321	-327.660	616.297	1067.170	-264.879	636.493	924.749	-262.059	517.060	451.582	-65.741	765.192	507.202	-339.226	565.554	502.088	-132.680	681.954	547.915	-284.398	557.197	419.419	-147.702	701.335	464.409	-269.578	322.657	219.744	-82.345	807.344	180.574	-343.610	366.854	248.879	-142.763	738.515	219.637	-315.070	316.265	43.005	-195.260	852.514	45.618	-309.391
	70	0.70833	589.215	668.760	-255.368	582.785	671.219	-188.981	582.764	678.735	-314.586	505.221	365.698	-193.990	675.189	375.582	-290.594	277.871	127.032	-184.684	761.371	61.873	-293.105	650.552	736.152	-248.134	650.568	730.480	-153.355	650.536	741.824	-342.913	507.804	779.428	-226.810	503.091	776.244	-281.541	505.262	364.860	-143.497	672.669	370.879	-340.308	512.380	355.512	-243.335	688.684	377.088	-236.125	272.847	133.088	-152.122	751.234	59.352	-325.986	281.647	136.531	-211.076	758.582	66.907	-264.908	551.607	1125.205	-262.355	635.468	1081.688	-199.696	626.437	1078.670	-328.901	625.196	1068.546	-266.323	645.775	926.139	-263.565	528.451	451.280	-65.566	771.856	507.569	-340.698	576.955	501.694	-132.601	689.629	548.753	-286.362	569.919	418.560	-146.412	708.104	465.035	-271.875	333.194	222.999	-81.452	810.366	179.452	-343.408	378.704	250.125	-141.704	741.965	219.345	-316.016	320.107	44.371	-194.975	853.211	44.199	-309.068
	71	0.71667	596.956	669.884	-256.663	590.350	672.161	-190.416	590.480	680.115	-315.994	519.177	364.101	-193.054	680.565	376.634	-291.703	287.561	131.026	-183.683	761.996	61.543	-293.075	658.350	737.121	-249.272	658.252	731.116	-154.474	658.448	743.125	-344.071	515.708	780.646	-227.332	510.900	777.726	-282.031	519.049	363.698	-142.556	677.861	371.853	-341.401	527.261	352.578	-241.761	693.656	377.185	-239.330	282.544	137.319	-151.164	752.104	59.130	-326.038	291.039	140.515	-209.789	759.039	66.776	-265.384	560.382	1126.590	-263.503	644.457	1082.778	-201.766	635.202	1079.957	-330.160	634.043	1069.856	-267.749	654.478	927.310	-265.463	540.017	450.971	-65.342	778.219	507.572	-342.358	588.316	501.377	-132.432	697.085	549.027	-288.864	582.807	417.838	-145.190	714.384	465.001	-274.651	344.430	226.194	-80.526	813.185	178.385	-343.108	390.832	251.603	-140.591	745.108	219.176	-316.611	324.652	46.091	-194.584	853.791	43.032	-308.753
	72	0.72500	604.411	670.991	-257.802	597.685	673.179	-191.680	598.030	681.403	-317.239	533.513	362.661	-192.120	685.689	377.584	-292.673	297.907	135.121	-182.724	762.501	61.259	-292.983	665.955	738.076	-250.291	665.694	731.866	-155.479	666.215	744.286	-345.103	523.374	781.888	-228.057	518.629	779.183	-282.730	533.176	362.659	-141.621	682.718	372.710	-342.346	542.608	349.797	-240.211	698.772	377.239	-241.491	292.945	141.600	-150.233	752.862	58.951	-326.029	301.163	144.794	-208.615	759.142	66.607	-265.747	569.149	1127.968	-264.574	653.297	1084.010	-203.514	643.914	1081.173	-331.432	642.808	1071.086	-269.154	663.071	928.517	-266.946	551.716	450.697	-65.092	784.266	507.234	-344.050	599.619	501.173	-132.222	704.010	549.052	-291.307	595.910	417.356	-143.971	720.461	464.687	-276.914	356.351	229.289	-79.597	815.791	177.384	-342.683	403.628	253.324	-139.388	748.164	219.217	-316.924	330.052	48.167	-194.065	854.278	42.095	-308.412
	73	0.73333	611.624	672.072	-258.784	604.816	674.270	-192.757	605.417	682.596	-318.309	548.200	361.449	-191.219	690.490	378.422	-293.469	308.861	139.303	-181.849	762.901	61.031	-292.820	673.382	739.017	-251.189	672.928	732.730	-156.369	673.836	745.305	-346.009	530.840	783.149	-228.972	526.288	780.619	-283.630	547.606	361.805	-140.724	687.224	373.455	-343.114	558.793	347.041	-238.463	701.191	377.517	-242.445	304.007	145.903	-149.366	753.513	58.821	-325.945	312.137	149.335	-207.538	759.726	66.269	-265.431	577.791	1129.290	-265.653	662.062	1085.283	-204.842	652.595	1082.314	-332.658	651.464	1072.247	-270.513	671.720	929.718	-268.067	563.514	450.502	-64.837	789.999	506.617	-345.608	610.825	501.171	-131.940	710.357	549.171	-293.218	609.328	417.234	-142.573	724.982	463.994	-278.211	368.925	232.235	-78.695	818.161	176.458	-342.153	417.470	255.174	-138.255	750.577	218.880	-316.422	336.488	50.581	-193.398	854.685	41.359	-308.028
	74	0.74167	618.651	673.132	-259.622	611.786	675.434	-193.658	612.660	683.704	-319.212	563.185	360.527	-190.374	694.904	379.144	-294.081	320.371	143.541	-181.098	763.214	60.862	-292.593	680.660	739.952	-251.981	679.999	733.706	-157.158	681.320	746.198	-346.805	538.156	784.430	-230.043	533.883	782.040	-284.698	562.284	361.193	-139.887	691.373	374.096	-343.700	574.929	344.991	-237.004	699.746	378.454	-243.115	315.677	150.183	-148.600	754.056	58.741	-325.788	323.954	153.790	-206.569	760.112	66.012	-264.758	586.329	1130.563	-266.710	670.700	1086.374	-206.143	661.074	1083.372	-333.892	659.987	1073.361	-271.788	680.025	930.769	-269.290	575.385	450.429	-64.589	795.434	505.797	-346.888	621.968	501.466	-131.635	716.469	549.516	-294.736	622.715	417.477	-141.383	727.480	463.454	-279.033	382.094	234.989	-77.848	820.272	175.608	-341.569	431.873	257.051	-137.211	752.674	218.496	-315.585	344.160	53.300	-192.566	855.018	40.795	-307.601
